<?xml version="1.0" standalone="no"?>
<svg version="1.0" xmlns="http://www.w3.org/2000/svg"
    width="100.000000pt" height="100.000000pt" viewBox="0 0 100.000000 100.000000"
    preserveAspectRatio="xMidYMid meet">

    <g transform="translate(0.000000,100.000000) scale(0.100000,-0.100000)"
        fill="#35692d" stroke="none">
        
        <path d="M423 837 c-35 -23 -63 -48 -63 -55 0 -6 32 9 70 34 l70 47 70 -47
            c39 -25 70 -40 70 -34 0 15 -123 98 -142 97 -7 0 -41 -19 -75 -42z"/>
        
        <path d="M190 794 c-19 -14 -41 -29 -49 -33 -7 -5 -12 -14 -10 -20 3 -7 17 -2
            39 14 61 46 64 46 101 19 49 -37 69 -47 69 -34 0 11 -90 80 -105 79 -5 0 -26
            -11 -45 -25z"/>
        
        <path d="M433 784 l-53 -35 0 -84 0 -85 45 0 45 0 0 55 c0 54 0 55 30 55 30 0
            30 -1 30 -55 l0 -55 45 0 45 0 0 85 0 84 -55 36 c-31 19 -61 35 -68 34 -6 0
            -36 -16 -64 -35z"/>
        
        <path d="M708 785 c-27 -20 -48 -40 -48 -46 0 -11 6 -8 66 32 l42 28 38 -27
            c58 -42 64 -45 64 -30 -1 13 -89 78 -106 78 -5 0 -30 -16 -56 -35z"/>
        
        <path d="M183 729 c-42 -30 -43 -31 -43 -90 l0 -59 95 0 95 0 0 60 c0 59 0 59
            -44 90 -25 16 -48 30 -53 30 -4 -1 -27 -14 -50 -31z m87 -74 c0 -33 -2 -35
            -35 -35 -33 0 -35 2 -35 35 0 33 2 35 35 35 33 0 35 -2 35 -35z"/>
        
        <path d="M713 729 c-42 -30 -43 -31 -43 -90 l0 -59 95 0 95 0 0 60 c0 59 0 59
            -44 90 -25 16 -48 30 -53 30 -4 -1 -27 -14 -50 -31z m87 -74 c0 -33 -2 -35
            -35 -35 -33 0 -35 2 -35 35 0 33 2 35 35 35 33 0 35 -2 35 -35z"/>

        <path d="M87 522 c-14 -15 -17 -40 -17 -128 l1 -109 31 65 c20 41 55 88 94
            128 l62 62 -77 0 c-63 0 -81 -4 -94 -18z"/>
        
        <path d="M289 496 c-118 -92 -181 -204 -202 -358 l-6 -38 89 0 89 0 6 37 c27
            177 57 245 147 338 l64 65 -66 0 c-62 0 -68 -2 -121 -44z"/>
        
        <path d="M520 506 c-121 -89 -187 -203 -215 -368 l-6 -38 89 0 90 0 6 48 c21
            151 67 252 156 336 l59 56 -67 0 c-60 0 -72 -4 -112 -34z"/>

        <path d="M754 518 c-55 -41 -125 -113 -154 -158 -32 -51 -65 -143 -74 -213
            l-7 -47 89 0 90 0 7 63 c8 72 38 167 68 217 12 19 48 63 81 98 l59 62 -65 0
            c-51 0 -71 -5 -94 -22z"/>

        <path d="M894 452 c-79 -67 -135 -178 -150 -300 l-7 -52 85 0 c61 0 89 4 97
            14 8 9 11 68 9 189 l-3 176 -31 -27z"/>
    </g>
</svg>
